<?xml version="1.0" encoding="UTF-8" standalone="no"?>
<!-- Created with Inkscape (http://www.inkscape.org/) -->

<svg
   width="212.68845mm"
   height="212.68845mm"
   viewBox="0 0 212.68845 212.68845"
   version="1.1"
   id="svg1"
   xmlns="http://www.w3.org/2000/svg"
   xmlns:svg="http://www.w3.org/2000/svg">
  <defs
     id="defs1" />
  <g
     id="layer1"
     transform="translate(9.2133656,-14.325594)">
    <path
       id="path4"
       style="fill-rule:evenodd;stroke-width:0.264583"
       d="m 41.818421,29.945024 c -6.575783,0.18573 -14.872999,2.37946 -15.107605,9.68209 -0.686908,21.38157 41.434204,39.15519 57.324972,50.46607 0,0 -52.691452,0.65699 -64.520616,2.46651 -11.8291645,1.80953 -24.2617555,5.99588 -23.9117195,14.507646 0.350042,8.51177 11.468487,11.36076 15.9943735,12.25615 4.525886,0.8954 51.590649,0.17255 51.590649,0.17255 -37.748013,15.15333 -60.8643915,27.61948 -57.5995855,38.73562 2.16353,7.36647 11.2676495,9.33664 17.7839285,8.86974 6.931694,-0.49666 38.332544,-16.20418 38.332544,-16.20418 3.242535,35.29885 45.431468,60.42405 80.878788,60.50742 37.94443,-3e-5 56.0813,-28.84787 56.08133,-66.7923 -46.70659,-20.51465 -94.67174,1.0821 -94.67174,1.0821 0,0 -23.262395,-17.85261 2.16369,-33.00005 3.0837,-1.8371 6.43194,-3.41308 9.94875,-4.76095 -0.71156,4.93713 6.22928,10.48522 15.59905,10.48515 7.17071,4e-5 10.30591,-3.81757 10.30583,-9.94255 -0.003,-2.13251 -0.72497,-4.21918 -2.08049,-6.00997 7.34762,-0.75052 14.70393,-0.72293 21.58731,-0.0579 -2.75504,2.09098 -4.3399,5.08356 -4.35943,8.23154 -8e-5,6.12501 3.90045,8.03005 11.07116,8.03 7.17074,5e-5 14.89633,-1.90499 14.89625,-8.03 -0.0199,-1.18069 -0.26051,-2.35109 -0.71262,-3.46697 2.97228,1.22485 5.59333,2.63117 7.69514,4.23437 0.57716,0.44023 1.14011,0.90819 1.69551,1.38906 C 185.51612,100.08005 175.2803,90.527084 162.55709,82.265214 140.97696,68.252084 48.632475,30.574444 48.632475,30.574444 c -2.327852,-0.46496 -4.622131,-0.69133 -6.814054,-0.62942 z M 151.58877,153.56631 c 0.50282,0.007 0.99708,0.0211 1.4857,0.0398 l 0.0181,-0.003 c 0.0424,3.68474 0.11267,18.15053 -1.49241,18.91616 -1.85186,0.8833 -11.53214,1.17641 -12.58218,0.76067 -1.05004,-0.41573 -5.01985,-16.06878 -5.01985,-16.06878 -9.47444,1.71134 -12.39976,4.09432 -12.39976,4.09432 0,0 6.74226,-6.81804 26.41389,-7.68377 1.22948,-0.0538 2.42176,-0.0712 3.57653,-0.0558 z m 3.00395,0.13488 c 15.33105,0.99255 23.21874,7.64966 23.21874,7.64966 0,0 -2.90501,-2.1944 -9.33173,-3.87315 -0.0823,0.4499 -3.06772,16.6939 -5.02657,17.16588 -1.61208,0.38842 -7.40853,-0.23654 -10.61072,-1.12758 0.53078,-0.4623 0.62731,-1.02003 0.7891,-1.54771 0.21057,-0.68684 0.35405,-1.47931 0.4749,-2.38487 0.24169,-1.81113 0.37177,-4.05163 0.44701,-6.26163 0.11848,-3.48006 0.0672,-7.86399 0.0393,-9.6206 z" />
  </g>
</svg>
