<?xml version="1.0" encoding="UTF-8" standalone="no"?>
<!-- Created with Inkscape (http://www.inkscape.org/) -->

<svg
   width="59.621693mm"
   height="59.621693mm"
   viewBox="0 0 59.621693 59.621692"
   version="1.1"
   id="svg5"
   xml:space="preserve"
   inkscape:version="1.2.1 (9c6d41e410, 2022-07-14)"
   sodipodi:docname="range.svg"
   xmlns:inkscape="http://www.inkscape.org/namespaces/inkscape"
   xmlns:sodipodi="http://sodipodi.sourceforge.net/DTD/sodipodi-0.dtd"
   xmlns="http://www.w3.org/2000/svg"
   xmlns:svg="http://www.w3.org/2000/svg"><sodipodi:namedview
     id="namedview7"
     pagecolor="#616161"
     bordercolor="#000000"
     borderopacity="0.25"
     inkscape:showpageshadow="2"
     inkscape:pageopacity="0"
     inkscape:pagecheckerboard="true"
     inkscape:deskcolor="#414141"
     inkscape:document-units="mm"
     showgrid="false"
     inkscape:zoom="0.5946522"
     inkscape:cx="361.55588"
     inkscape:cy="24.384001"
     inkscape:window-width="1024"
     inkscape:window-height="706"
     inkscape:window-x="-8"
     inkscape:window-y="-8"
     inkscape:window-maximized="1"
     inkscape:current-layer="layer1" /><defs
     id="defs2" /><g
     inkscape:label="Camada 1"
     inkscape:groupmode="layer"
     id="layer1"
     transform="translate(21.827845,7.4386582)"><g
       id="g1"
       transform="translate(-28.0723,-28.006863)"><path
         style="display:inline;fill:#e02323;fill-opacity:1;stroke-width:0.0586147"
         d="m 33.035699,78.351158 -1.110495,-0.03127 -0.09994,-0.175844 c -0.08722,-0.153458 -0.659579,-2.666491 -1.228191,-5.392549 -0.100866,-0.483571 -0.214004,-0.908938 -0.251419,-0.945259 -0.03741,-0.03632 -0.384546,-0.16404 -0.771403,-0.283819 -1.303674,-0.403647 -2.896441,-1.08312 -4.133214,-1.763226 l -0.499104,-0.27446 -0.907648,0.583379 c -0.499205,0.320859 -1.690484,1.086924 -2.647285,1.702368 -0.956802,0.615444 -1.792525,1.147293 -1.857163,1.181886 -0.33033,0.176787 -0.335229,0.172899 -2.528432,-2.007016 -1.144451,-1.137517 -2.431594,-2.426477 -2.860317,-2.864355 -0.93812,-0.958155 -0.924123,-0.835813 -0.220082,-1.923648 0.156482,-0.241786 0.402975,-0.624247 0.547762,-0.849913 0.144787,-0.225666 0.331095,-0.51217 0.414016,-0.636675 0.08292,-0.124504 0.178103,-0.274822 0.211513,-0.334039 0.03341,-0.05922 0.258571,-0.413694 0.500356,-0.787726 0.241786,-0.374032 0.466556,-0.72487 0.49949,-0.779639 0.03293,-0.05477 0.214326,-0.336489 0.403094,-0.626042 0.517731,-0.794154 0.507759,-0.692908 0.136738,-1.388277 -0.606034,-1.13583 -1.241886,-2.694326 -1.623904,-3.980248 -0.09948,-0.334866 -0.199877,-0.627623 -0.223103,-0.650571 -0.02323,-0.02295 -1.453376,-0.347949 -3.178113,-0.722224 C 9.8841166,55.027717 8.3806504,54.676682 8.2678172,54.621913 L 8.0626658,54.522333 8.0261318,53.23281 c -0.052039,-1.836817 -0.057818,-4.449016 -0.012815,-5.792756 0.038222,-1.141273 0.03989,-1.152604 0.1834524,-1.24667 0.079684,-0.05221 1.5855745,-0.408609 3.3464238,-0.791997 1.76085,-0.383387 3.232422,-0.708612 3.270161,-0.722722 0.03774,-0.01411 0.138938,-0.25808 0.224889,-0.542156 0.377635,-1.248135 1.120604,-3.030562 1.690315,-4.055171 0.150065,-0.269887 0.272845,-0.52958 0.272845,-0.577095 0,-0.04751 -0.192536,-0.380606 -0.427859,-0.740203 -0.235322,-0.359598 -0.553799,-0.851638 -0.707727,-1.093424 -0.153928,-0.241785 -0.527415,-0.822071 -0.829972,-1.289523 -1.468577,-2.268962 -1.6773,-2.622217 -1.65798,-2.806069 0.01527,-0.145279 0.346024,-0.507011 1.786566,-1.953877 3.824001,-3.840787 3.859996,-3.87506 4.063656,-3.869269 0.122995,0.0035 0.405053,0.145204 0.840246,0.422142 0.360306,0.229283 0.707855,0.448599 0.772331,0.487369 0.06448,0.03877 0.239458,0.156214 0.388848,0.260988 0.14939,0.104774 0.285621,0.190498 0.302734,0.190498 0.01711,0 0.246622,0.145071 0.510019,0.32238 0.263396,0.17731 0.492904,0.322381 0.510018,0.322381 0.01711,0 0.156878,0.09232 0.310587,0.205151 0.153709,0.112833 0.292066,0.205152 0.307458,0.205152 0.02532,0 0.342539,0.203139 1.27293,0.815147 0.328646,0.216183 0.50272,0.323573 0.633754,0.390978 0.04109,0.02114 0.252102,-0.05857 0.468917,-0.177124 1.124066,-0.614635 2.248601,-1.099447 3.673654,-1.583792 l 1.052085,-0.357582 0.70805,-3.251191 c 0.440383,-2.022129 0.750964,-3.323207 0.821568,-3.44169 l 0.113519,-0.190497 h 4.082243 4.082244 l 0.126951,0.249112 c 0.0787,0.154424 0.384301,1.441067 0.804008,3.384997 0.372381,1.724737 0.695324,3.154888 0.717651,3.178113 0.02233,0.02323 0.314575,0.123621 0.64944,0.223102 1.29759,0.385485 2.827327,1.01117 4.023312,1.645592 l 0.648756,0.34414 0.406308,-0.251316 c 0.223469,-0.138224 0.93384,-0.591499 1.578601,-1.007278 2.441338,-1.574315 3.458525,-2.202222 3.67032,-2.265677 l 0.218773,-0.06555 0.458655,0.417097 c 0.414027,0.376512 1.19628,1.160019 4.318713,4.325638 0.969897,0.983314 0.990263,1.009089 0.95323,1.206491 -0.03686,0.196463 -0.47621,0.901083 -2.54434,4.080527 l -1.00433,1.544009 0.266028,0.478197 c 0.777377,1.39737 1.568763,3.347816 1.995564,4.918259 0.02614,0.09618 -0.09257,0.102575 -1.904002,0.102575 h -1.93188 l -0.04008,-0.16119 c -0.173332,-0.69717 -1.076882,-2.646544 -1.712988,-3.695709 -1.456655,-2.402541 -3.795785,-4.750041 -6.125533,-6.147451 -2.471152,-1.482227 -5.106012,-2.358618 -7.811224,-2.598123 -0.831227,-0.07359 -2.631653,-0.07359 -3.462881,0 -2.705211,0.239505 -5.340071,1.115896 -7.811223,2.598123 -2.304362,1.382182 -4.706517,3.784338 -6.0887,6.088699 -1.482227,2.471152 -2.358618,5.106012 -2.598122,7.811224 -0.07359,0.831227 -0.07359,2.631653 0,3.462881 0.239504,2.705211 1.115895,5.340071 2.598122,7.811224 1.382183,2.304361 3.784338,4.706517 6.0887,6.088699 2.471152,1.482227 5.106012,2.358618 7.811223,2.598122 0.831228,0.07359 2.631654,0.07359 3.462881,0 3.311942,-0.29322 6.477768,-1.521797 9.276591,-3.60001 1.17959,-0.875881 2.783833,-2.482715 3.645006,-3.650889 0.95106,-1.290105 1.798526,-2.776563 2.307477,-4.047324 l 0.146693,-0.366263 -0.157053,-0.04087 c -0.08638,-0.02248 -2.478193,-0.557374 -5.315143,-1.188656 l -5.15809,-1.147787 -0.01541,-2.035229 -0.01541,-2.035228 h 10.785859 10.785858 l -8.97e-4,1.978245 c -4.69e-4,1.088034 -0.02324,2.013489 -0.05054,2.056564 -0.03048,0.04809 -1.321653,0.346063 -3.345274,0.772011 -1.812596,0.38153 -3.305261,0.703323 -3.317033,0.715095 -0.01177,0.01177 -0.116709,0.335826 -0.233194,0.72012 -0.424755,1.401306 -1.06613,2.930228 -1.753549,4.18014 -0.211631,0.384802 -0.384784,0.731908 -0.384784,0.771346 0,0.03944 0.04948,0.141719 0.109948,0.227291 0.394716,0.558555 3.172645,5.077979 3.232235,5.258536 l 0.07342,0.222464 -1.810376,1.792603 c -2.252265,2.230151 -3.927681,3.831978 -4.056131,3.877971 -0.199947,0.0716 -0.205353,0.06835 -3.293333,-1.974996 -0.628642,-0.415979 -1.169362,-0.769514 -1.201601,-0.785633 -0.03224,-0.01612 -0.303731,-0.195603 -0.603317,-0.398853 l -0.544703,-0.369546 -0.598283,0.319199 c -1.160801,0.619316 -2.869605,1.309493 -4.108845,1.659541 -0.359266,0.101481 -0.571951,0.191937 -0.589775,0.250833 -0.04223,0.139544 -0.340749,1.496705 -0.857409,3.898056 -0.256161,1.190601 -0.512962,2.245665 -0.570666,2.344587 l -0.104916,0.179856 -1.638051,0.03601 c -1.892349,0.0416 -3.859705,0.03989 -5.44482,-0.0047 z M 20.542969,36.977023 c 0.212089,-0.204168 0.385617,-0.389161 0.385617,-0.411096 0,-0.02194 -0.369273,-0.414175 -0.820606,-0.871644 -0.451332,-0.457468 -0.820605,-0.855995 -0.820605,-0.885614 0,-0.09729 0.522342,-0.537703 0.637735,-0.537703 0.06205,0 0.636332,0.221847 1.276179,0.492992 l 1.163356,0.492992 0.359472,-0.331801 c 0.19771,-0.182491 0.362564,-0.36184 0.366342,-0.398553 0.0038,-0.03671 -0.223926,-0.177029 -0.506009,-0.311814 -1.315439,-0.628541 -1.743401,-0.861243 -1.734256,-0.942993 0.0052,-0.04686 0.03671,-0.219341 0.06993,-0.383297 0.09462,-0.467035 -0.0021,-0.691697 -0.5442,-1.263702 -0.255244,-0.26934 -0.658898,-0.694848 -0.897007,-0.945574 l -0.43293,-0.455865 -0.222103,0.192099 c -0.551458,0.476964 -2.75987,2.601364 -2.758868,2.653916 6.16e-4,0.03224 0.149131,0.216874 0.330034,0.410302 0.869094,0.929269 2.169573,2.297273 2.796477,2.941678 0.382498,0.393176 0.734448,0.770543 0.782113,0.838593 0.04766,0.06805 0.108498,0.115757 0.135187,0.106013 0.02669,-0.0097 0.222053,-0.184762 0.434142,-0.388929 z m -2.495921,-3.423888 -0.449029,-0.483769 0.273185,-0.283167 c 0.150252,-0.155742 0.453608,-0.444118 0.674125,-0.640835 l 0.400939,-0.357667 0.338274,0.351089 c 0.391977,0.406826 0.491886,0.569647 0.443361,0.722536 -0.03948,0.124381 -1.053824,1.137885 -1.161696,1.160731 -0.03857,0.0082 -0.272193,-0.202845 -0.519159,-0.468918 z M 54.3536,35.392814 c 0.959083,-0.888779 1.743751,-1.630076 1.743708,-1.647325 -4.3e-5,-0.01725 -0.181085,-0.229174 -0.402315,-0.470944 l -0.402237,-0.439584 -0.628029,0.58612 c -0.345416,0.322366 -0.808473,0.751236 -1.029016,0.953044 l -0.400987,0.366925 -0.03302,-0.366925 c -0.03427,-0.380771 -0.119888,-1.923154 -0.187192,-3.37215 -0.02137,-0.460065 -0.05653,-0.847408 -0.07814,-0.860761 -0.03234,-0.01999 -2.05205,1.834267 -3.532699,3.243309 l -0.359221,0.341848 0.385339,0.441836 0.385339,0.441836 0.98704,-0.895205 c 0.542872,-0.492362 0.997387,-0.885816 1.010035,-0.874342 0.02248,0.0204 0.110076,1.219969 0.243556,3.335447 0.03662,0.580285 0.07751,1.090622 0.09088,1.134082 0.03059,0.09946 0.03352,0.09692 2.206965,-1.917211 z M 34.328078,29.508525 c 0.149041,-0.298203 0.463613,-0.89827 0.699049,-1.333484 0.235437,-0.435214 0.545806,-1.011126 0.689709,-1.279804 l 0.261643,-0.488506 0.396092,0.752272 c 0.217851,0.413749 0.537538,1.004529 0.710415,1.312844 0.172877,0.308314 0.314322,0.578674 0.314322,0.6008 0,0.02213 -0.481805,0.04023 -1.070678,0.04023 h -1.070677 l -0.199737,0.337034 c -0.109856,0.185369 -0.237746,0.396382 -0.284202,0.468917 l -0.08446,0.131883 h 2.24084 2.24084 l -0.09793,-0.149466 C 38.918923,29.66563 37.630661,27.17954 36.804408,25.522728 36.390422,24.692598 36.030994,24.0134 36.00568,24.0134 c -0.02531,0 -0.146417,0.204419 -0.269119,0.454264 -0.122702,0.249845 -0.547366,1.074114 -0.943697,1.831708 -0.396332,0.757595 -0.950998,1.825847 -1.232591,2.373895 -0.281593,0.548047 -0.563845,1.082173 -0.627225,1.186947 l -0.115238,0.190497 h 0.619646 0.619647 z"
         id="path6030"
         sodipodi:nodetypes="ccssssscssssssssssssssssscsssssssssssssssssssssssssscsscccssssscssscsssscssscsssssssssssssssscssccccccsssssscscssssscssssscsccsssssscscscccscssssscsscsscsscsssscsscsssscccssssssssscsssscsscccssssssscccs" /><path
         style="display:inline;fill:#ffffff;fill-opacity:1;stroke-width:0.0586147"
         d="M 35.01476,66.912779 C 28.301168,66.45833 22.563472,62.025847 20.456584,55.666303 c -1.125423,-3.397039 -1.125423,-6.979723 0,-10.376762 1.63707,-4.941419 5.497666,-8.800984 10.436495,-10.433708 3.415147,-1.12901 6.95965,-1.12901 10.374797,0 4.511979,1.491612 8.101665,4.806325 9.988171,9.223069 0.148167,0.346894 0.269396,0.642726 0.269396,0.657403 0,0.01468 -5.35445,0.02669 -11.898778,0.02669 -6.544328,0 -11.898694,-0.01978 -11.898592,-0.04396 2.93e-4,-0.06515 0.903862,-1.275049 1.280425,-1.714479 0.179567,-0.209548 0.589749,-0.651356 0.911513,-0.981796 l 0.585027,-0.6008 7.418279,-0.0026 7.418278,-0.0026 -0.351688,-0.32636 c -1.015132,-0.941761 -1.998206,-1.618563 -3.223807,-2.219445 -1.873657,-0.91861 -3.588362,-1.31528 -5.685622,-1.31528 -2.097261,0 -3.811966,0.39667 -5.685623,1.31528 -2.648805,1.298646 -4.67103,3.329868 -5.953469,5.979957 -0.891198,1.84161 -1.283154,3.560454 -1.283154,5.627008 0,2.066555 0.391956,3.785398 1.283154,5.627008 1.282439,2.65009 3.304664,4.681312 5.953469,5.979958 1.873657,0.91861 3.588362,1.31528 5.685623,1.31528 2.09726,0 3.811965,-0.39667 5.685622,-1.31528 2.089907,-1.024631 3.796577,-2.50874 5.041055,-4.383663 0.239469,-0.360783 0.3688,-0.505827 0.434198,-0.486953 0.05123,0.01479 0.858062,0.177637 1.792966,0.361894 0.934904,0.184257 1.71042,0.343642 1.723369,0.35419 0.04033,0.03285 -0.75109,1.37076 -1.152344,1.948064 -2.024355,2.912538 -4.964478,5.106519 -8.337468,6.221593 -1.429511,0.47258 -2.665723,0.710221 -4.249564,0.816904 -0.967358,0.06516 -0.980243,0.06513 -2.003552,-0.0041 z"
         id="path6617"
         sodipodi:nodetypes="cssssssscssccccsssssssssssssssscc" /></g></g></svg>
